# MagicaVoxel @ Ephtracy

# group
o 

# material
mtllib Coin.mtl
usemtl palette

# normals
vn -1 0 0
vn 1 0 0
vn 0 0 -1
vn 0 0 1
vn 0 -1 0
vn 0 1 0

# texcoords
vt 0.970703 0.5
vt 0.974609 0.5
vt 0.978516 0.5

# verts
v -1.2 -0.6 -0.3
v -1.2 -0.6 0.2
v -1.2 0.6 -0.3
v -1.2 0.6 0.2
v -1 -0.8 -0.3
v -1 -0.8 0.2
v -1 -0.6 -0.3
v -1 -0.6 0.2
v -1 0.6 -0.3
v -1 0.6 0.2
v -1 0.8 -0.3
v -1 0.8 0.2
v -0.8 -1 -0.3
v -0.8 -1 0.2
v -0.8 -0.9 -0.2
v -0.8 -0.9 -0.1
v -0.8 -0.8 -0.3
v -0.8 -0.8 -0.2
v -0.8 -0.8 -0.1
v -0.8 -0.8 0.2
v -0.8 0.8 -0.3
v -0.8 0.8 0.2
v -0.8 1 -0.3
v -0.8 1 0.2
v -0.6 -1.2 -0.3
v -0.6 -1.2 0.2
v -0.6 -1 -0.3
v -0.6 -1 0.2
v -0.6 1 -0.3
v -0.6 1 0.2
v -0.6 1.2 -0.3
v -0.6 1.2 0.2
v -0.3 0.4 -0.1
v -0.3 0.4 0.2
v -0.3 0.6 -0.1
v -0.3 0.6 0.2
v -0.2 -0.7 -0.1
v -0.2 -0.7 0.2
v -0.2 -0.6 -0.1
v -0.2 -0.6 0.2
v -0.1 -0.6 -0.1
v -0.1 -0.6 0.2
v -0.1 0.4 -0.1
v -0.1 0.4 0.2
v -0.1 0.6 -0.1
v -0.1 0.6 0.2
v -0.1 0.7 -0.1
v -0.1 0.7 0.2
v 0.4 -1 -0.1
v 0.4 -1 0.2
v 0.4 -0.8 -0.1
v 0.4 -0.8 0.2
v 0.4 0.8 -0.1
v 0.4 0.8 0.2
v 0.4 1 -0.1
v 0.4 1 0.2
v 0.8 -0.8 -0.1
v 0.8 -0.8 0.2
v 0.8 -0.4 -0.1
v 0.8 -0.4 0.2
v 0.8 0.4 -0.1
v 0.8 0.4 0.2
v 0.8 0.8 -0.1
v 0.8 0.8 0.2
v 1 -0.4 -0.1
v 1 -0.4 0.2
v 1 0.4 -0.1
v 1 0.4 0.2
v -1 -0.4 -0.1
v -1 -0.4 0.2
v -1 0.4 -0.1
v -1 0.4 0.2
v -0.8 -0.8 -0.1
v -0.8 -0.8 0.2
v -0.8 -0.4 -0.1
v -0.8 -0.4 0.2
v -0.8 0.4 -0.1
v -0.8 0.4 0.2
v -0.8 0.8 -0.1
v -0.8 0.8 0.2
v -0.4 -1 -0.1
v -0.4 -1 0.2
v -0.4 -0.8 -0.1
v -0.4 -0.8 0.2
v -0.4 0.8 -0.1
v -0.4 0.8 0.2
v -0.4 1 -0.1
v -0.4 1 0.2
v 0.0999999 -0.6 -0.1
v 0.0999999 -0.6 0.2
v 0.0999999 0.7 -0.1
v 0.0999999 0.7 0.2
v 0.2 -0.7 -0.1
v 0.2 -0.7 0.2
v 0.2 -0.6 -0.1
v 0.2 -0.6 0.2
v 0.6 -1.2 -0.3
v 0.6 -1.2 0.2
v 0.6 -1 -0.3
v 0.6 -1 0.2
v 0.6 1 -0.3
v 0.6 1 0.2
v 0.6 1.2 -0.3
v 0.6 1.2 0.2
v 0.8 -1 -0.3
v 0.8 -1 0.2
v 0.8 -0.8 -0.3
v 0.8 -0.8 0.2
v 0.8 0.8 -0.3
v 0.8 0.8 0.2
v 0.8 1 -0.3
v 0.8 1 0.2
v 1 -0.8 -0.3
v 1 -0.8 0.2
v 1 -0.6 -0.3
v 1 -0.6 0.2
v 1 0.6 -0.3
v 1 0.6 0.2
v 1 0.8 -0.3
v 1 0.8 0.2
v 1.2 -0.6 -0.3
v 1.2 -0.6 0.2
v 1.2 0.6 -0.3
v 1.2 0.6 0.2
v -1.2 -0.6 -0.3
v -1.2 0.6 -0.3
v -1 -0.8 -0.3
v -1 -0.6 -0.3
v -1 0.6 -0.3
v -1 0.8 -0.3
v -0.8 -1 -0.3
v -0.8 -0.8 -0.3
v -0.8 0.8 -0.3
v -0.8 1 -0.3
v -0.6 -1.2 -0.3
v -0.6 -1 -0.3
v -0.6 1 -0.3
v -0.6 1.2 -0.3
v 0.6 -1.2 -0.3
v 0.6 -1 -0.3
v 0.6 1 -0.3
v 0.6 1.2 -0.3
v 0.8 -1 -0.3
v 0.8 -0.8 -0.3
v 0.8 0.8 -0.3
v 0.8 1 -0.3
v 1 -0.8 -0.3
v 1 -0.6 -0.3
v 1 0.6 -0.3
v 1 0.8 -0.3
v 1.2 -0.6 -0.3
v 1.2 0.6 -0.3
v -1 -0.4 -0.1
v -1 0.4 -0.1
v -0.8 -0.8 -0.1
v -0.8 -0.4 -0.1
v -0.8 0.4 -0.1
v -0.8 0.8 -0.1
v -0.4 -1 -0.1
v -0.4 -0.8 -0.1
v -0.4 0.8 -0.1
v -0.4 1 -0.1
v -0.3 0.4 -0.1
v -0.3 0.6 -0.1
v -0.2 -0.7 -0.1
v -0.2 -0.6 -0.1
v -0.1 -0.6 -0.1
v -0.1 0.4 -0.1
v -0.1 0.6 -0.1
v -0.1 0.7 -0.1
v 0.0999999 -0.6 -0.1
v 0.0999999 0.7 -0.1
v 0.2 -0.7 -0.1
v 0.2 -0.6 -0.1
v 0.4 -1 -0.1
v 0.4 -0.8 -0.1
v 0.4 0.8 -0.1
v 0.4 1 -0.1
v 0.8 -0.8 -0.1
v 0.8 -0.4 -0.1
v 0.8 0.4 -0.1
v 0.8 0.8 -0.1
v 1 -0.4 -0.1
v 1 0.4 -0.1
v -1.2 -0.6 0.2
v -1.2 0.6 0.2
v -1 -0.8 0.2
v -1 -0.6 0.2
v -1 -0.4 0.2
v -1 0.4 0.2
v -1 0.6 0.2
v -1 0.8 0.2
v -0.8 -1 0.2
v -0.8 -0.8 0.2
v -0.8 -0.4 0.2
v -0.8 0.4 0.2
v -0.8 0.8 0.2
v -0.8 1 0.2
v -0.6 -1.2 0.2
v -0.6 -1 0.2
v -0.6 1 0.2
v -0.6 1.2 0.2
v -0.4 -1 0.2
v -0.4 -0.8 0.2
v -0.4 0.8 0.2
v -0.4 1 0.2
v -0.3 0.4 0.2
v -0.3 0.6 0.2
v -0.2 -0.7 0.2
v -0.2 -0.6 0.2
v -0.1 -0.6 0.2
v -0.1 0.4 0.2
v -0.1 0.6 0.2
v -0.1 0.7 0.2
v 0.0999999 -0.6 0.2
v 0.0999999 0.7 0.2
v 0.2 -0.7 0.2
v 0.2 -0.6 0.2
v 0.4 -1 0.2
v 0.4 -0.8 0.2
v 0.4 0.8 0.2
v 0.4 1 0.2
v 0.6 -1.2 0.2
v 0.6 -1 0.2
v 0.6 1 0.2
v 0.6 1.2 0.2
v 0.8 -1 0.2
v 0.8 -0.8 0.2
v 0.8 -0.4 0.2
v 0.8 0.4 0.2
v 0.8 0.8 0.2
v 0.8 1 0.2
v 1 -0.8 0.2
v 1 -0.6 0.2
v 1 -0.4 0.2
v 1 0.4 0.2
v 1 0.6 0.2
v 1 0.8 0.2
v 1.2 -0.6 0.2
v 1.2 0.6 0.2
v -0.6 -1.2 -0.3
v 0.6 -1.2 -0.3
v -0.6 -1.2 0.2
v 0.6 -1.2 0.2
v -0.8 -1 -0.3
v -0.6 -1 -0.3
v 0.6 -1 -0.3
v 0.8 -1 -0.3
v -0.8 -1 0.2
v -0.6 -1 0.2
v 0.6 -1 0.2
v 0.8 -1 0.2
v -1 -0.8 -0.3
v -0.8 -0.8 -0.3
v 0.8 -0.8 -0.3
v 1 -0.8 -0.3
v -0.8 -0.8 -0.2
v -0.8 -0.8 -0.1
v -1 -0.8 0.2
v -0.8 -0.8 0.2
v 0.8 -0.8 0.2
v 1 -0.8 0.2
v -0.2 -0.7 -0.1
v 0.2 -0.7 -0.1
v -0.2 -0.7 0.2
v 0.2 -0.7 0.2
v -1.2 -0.6 -0.3
v -1 -0.6 -0.3
v 1 -0.6 -0.3
v 1.2 -0.6 -0.3
v -1.2 -0.6 0.2
v -1 -0.6 0.2
v 1 -0.6 0.2
v 1.2 -0.6 0.2
v -1 0.4 -0.1
v -0.8 0.4 -0.1
v -0.3 0.4 -0.1
v -0.1 0.4 -0.1
v 0.8 0.4 -0.1
v 1 0.4 -0.1
v -1 0.4 0.2
v -0.8 0.4 0.2
v -0.3 0.4 0.2
v -0.1 0.4 0.2
v 0.8 0.4 0.2
v 1 0.4 0.2
v -0.8 0.8 -0.1
v -0.4 0.8 -0.1
v 0.4 0.8 -0.1
v 0.8 0.8 -0.1
v -0.8 0.8 0.2
v -0.4 0.8 0.2
v 0.4 0.8 0.2
v 0.8 0.8 0.2
v -0.4 1 -0.1
v 0.4 1 -0.1
v -0.4 1 0.2
v 0.4 1 0.2
v -0.4 -1 -0.1
v 0.4 -1 -0.1
v -0.4 -1 0.2
v 0.4 -1 0.2
v -0.8 -0.8 -0.1
v -0.4 -0.8 -0.1
v 0.4 -0.8 -0.1
v 0.8 -0.8 -0.1
v -0.8 -0.8 0.2
v -0.4 -0.8 0.2
v 0.4 -0.8 0.2
v 0.8 -0.8 0.2
v -0.2 -0.6 -0.1
v -0.1 -0.6 -0.1
v 0.0999999 -0.6 -0.1
v 0.2 -0.6 -0.1
v -0.2 -0.6 0.2
v -0.1 -0.6 0.2
v 0.0999999 -0.6 0.2
v 0.2 -0.6 0.2
v -1 -0.4 -0.1
v -0.8 -0.4 -0.1
v 0.8 -0.4 -0.1
v 1 -0.4 -0.1
v -1 -0.4 0.2
v -0.8 -0.4 0.2
v 0.8 -0.4 0.2
v 1 -0.4 0.2
v -1.2 0.6 -0.3
v -1 0.6 -0.3
v 1 0.6 -0.3
v 1.2 0.6 -0.3
v -0.3 0.6 -0.1
v -0.1 0.6 -0.1
v -1.2 0.6 0.2
v -1 0.6 0.2
v -0.3 0.6 0.2
v -0.1 0.6 0.2
v 1 0.6 0.2
v 1.2 0.6 0.2
v -0.1 0.7 -0.1
v 0.0999999 0.7 -0.1
v -0.1 0.7 0.2
v 0.0999999 0.7 0.2
v -1 0.8 -0.3
v -0.8 0.8 -0.3
v 0.8 0.8 -0.3
v 1 0.8 -0.3
v -1 0.8 0.2
v -0.8 0.8 0.2
v 0.8 0.8 0.2
v 1 0.8 0.2
v -0.8 1 -0.3
v -0.6 1 -0.3
v 0.6 1 -0.3
v 0.8 1 -0.3
v -0.8 1 0.2
v -0.6 1 0.2
v 0.6 1 0.2
v 0.8 1 0.2
v -0.6 1.2 -0.3
v 0.6 1.2 -0.3
v -0.6 1.2 0.2
v 0.6 1.2 0.2

# faces
f 1/1/1 2/1/1 3/1/1
f 3/1/1 2/1/1 4/1/1
f 5/1/1 6/1/1 7/1/1
f 7/1/1 6/1/1 8/1/1
f 9/1/1 10/1/1 11/1/1
f 11/1/1 10/1/1 12/1/1
f 13/1/1 14/1/1 15/1/1
f 15/1/1 14/1/1 16/1/1
f 13/1/1 15/1/1 17/1/1
f 15/3/1 16/3/1 18/3/1
f 17/1/1 15/1/1 18/1/1
f 16/1/1 14/1/1 19/1/1
f 18/3/1 16/3/1 19/3/1
f 19/1/1 14/1/1 20/1/1
f 21/1/1 22/1/1 23/1/1
f 23/1/1 22/1/1 24/1/1
f 25/1/1 26/1/1 27/1/1
f 27/1/1 26/1/1 28/1/1
f 29/1/1 30/1/1 31/1/1
f 31/1/1 30/1/1 32/1/1
f 33/2/1 34/2/1 35/2/1
f 35/2/1 34/2/1 36/2/1
f 37/2/1 38/2/1 39/2/1
f 39/2/1 38/2/1 40/2/1
f 41/2/1 42/2/1 43/2/1
f 43/2/1 42/2/1 44/2/1
f 45/2/1 46/2/1 47/2/1
f 47/2/1 46/2/1 48/2/1
f 49/1/1 50/1/1 51/1/1
f 51/1/1 50/1/1 52/1/1
f 53/1/1 54/1/1 55/1/1
f 55/1/1 54/1/1 56/1/1
f 57/1/1 58/1/1 59/1/1
f 59/1/1 58/1/1 60/1/1
f 61/1/1 62/1/1 63/1/1
f 63/1/1 62/1/1 64/1/1
f 65/1/1 66/1/1 67/1/1
f 67/1/1 66/1/1 68/1/1
f 71/1/2 70/1/2 69/1/2
f 72/1/2 70/1/2 71/1/2
f 75/1/2 74/1/2 73/1/2
f 76/1/2 74/1/2 75/1/2
f 79/1/2 78/1/2 77/1/2
f 80/1/2 78/1/2 79/1/2
f 83/1/2 82/1/2 81/1/2
f 84/1/2 82/1/2 83/1/2
f 87/1/2 86/1/2 85/1/2
f 88/1/2 86/1/2 87/1/2
f 91/2/2 90/2/2 89/2/2
f 92/2/2 90/2/2 91/2/2
f 95/2/2 94/2/2 93/2/2
f 96/2/2 94/2/2 95/2/2
f 99/1/2 98/1/2 97/1/2
f 100/1/2 98/1/2 99/1/2
f 103/1/2 102/1/2 101/1/2
f 104/1/2 102/1/2 103/1/2
f 107/1/2 106/1/2 105/1/2
f 108/1/2 106/1/2 107/1/2
f 111/1/2 110/1/2 109/1/2
f 112/1/2 110/1/2 111/1/2
f 115/1/2 114/1/2 113/1/2
f 116/1/2 114/1/2 115/1/2
f 119/1/2 118/1/2 117/1/2
f 120/1/2 118/1/2 119/1/2
f 123/1/2 122/1/2 121/1/2
f 124/1/2 122/1/2 123/1/2
f 125/1/3 126/1/3 128/1/3
f 128/1/3 126/1/3 129/1/3
f 127/1/3 128/1/3 132/1/3
f 129/1/3 130/1/3 132/1/3
f 128/1/3 129/1/3 132/1/3
f 132/1/3 130/1/3 133/1/3
f 131/1/3 132/1/3 136/1/3
f 133/1/3 134/1/3 136/1/3
f 132/1/3 133/1/3 136/1/3
f 136/1/3 134/1/3 137/1/3
f 135/1/3 136/1/3 139/1/3
f 137/1/3 138/1/3 139/1/3
f 136/1/3 137/1/3 139/1/3
f 139/1/3 138/1/3 140/1/3
f 140/1/3 138/1/3 141/1/3
f 141/1/3 138/1/3 142/1/3
f 140/1/3 141/1/3 143/1/3
f 143/1/3 141/1/3 144/1/3
f 144/1/3 141/1/3 145/1/3
f 145/1/3 141/1/3 146/1/3
f 144/1/3 145/1/3 147/1/3
f 147/1/3 145/1/3 148/1/3
f 148/1/3 145/1/3 149/1/3
f 149/1/3 145/1/3 150/1/3
f 148/1/3 149/1/3 151/1/3
f 151/1/3 149/1/3 152/1/3
f 156/3/4 154/3/4 153/3/4
f 157/3/4 154/3/4 156/3/4
f 160/3/4 156/3/4 155/3/4
f 160/3/4 158/3/4 157/3/4
f 160/3/4 157/3/4 156/3/4
f 161/3/4 158/3/4 160/3/4
f 163/3/4 160/3/4 159/3/4
f 163/3/4 162/3/4 161/3/4
f 163/3/4 161/3/4 160/3/4
f 164/3/4 162/3/4 163/3/4
f 165/3/4 163/3/4 159/3/4
f 166/3/4 163/3/4 165/3/4
f 167/3/4 163/3/4 166/3/4
f 168/3/4 163/3/4 167/3/4
f 169/3/4 162/3/4 164/3/4
f 170/3/4 162/3/4 169/3/4
f 172/3/4 162/3/4 170/3/4
f 173/3/4 165/3/4 159/3/4
f 174/3/4 172/3/4 171/3/4
f 175/3/4 173/3/4 159/3/4
f 175/3/4 174/3/4 173/3/4
f 176/3/4 174/3/4 175/3/4
f 177/3/4 172/3/4 174/3/4
f 177/3/4 174/3/4 176/3/4
f 177/3/4 162/3/4 172/3/4
f 178/3/4 162/3/4 177/3/4
f 179/3/4 177/3/4 176/3/4
f 180/3/4 177/3/4 179/3/4
f 181/3/4 177/3/4 180/3/4
f 182/3/4 177/3/4 181/3/4
f 183/3/4 181/3/4 180/3/4
f 184/3/4 181/3/4 183/3/4
f 188/1/4 186/1/4 185/1/4
f 189/1/4 186/1/4 188/1/4
f 190/1/4 186/1/4 189/1/4
f 191/1/4 186/1/4 190/1/4
f 194/1/4 188/1/4 187/1/4
f 194/1/4 189/1/4 188/1/4
f 195/1/4 189/1/4 194/1/4
f 196/1/4 191/1/4 190/1/4
f 196/1/4 192/1/4 191/1/4
f 197/1/4 192/1/4 196/1/4
f 200/1/4 194/1/4 193/1/4
f 201/1/4 198/1/4 197/1/4
f 203/1/4 200/1/4 199/1/4
f 203/1/4 194/1/4 200/1/4
f 204/1/4 194/1/4 203/1/4
f 205/1/4 202/1/4 201/1/4
f 205/1/4 201/1/4 197/1/4
f 206/1/4 202/1/4 205/1/4
f 211/2/4 210/2/4 209/2/4
f 212/2/4 208/2/4 207/2/4
f 213/2/4 208/2/4 212/2/4
f 215/2/4 211/2/4 209/2/4
f 215/2/4 214/2/4 213/2/4
f 215/2/4 213/2/4 212/2/4
f 215/2/4 212/2/4 211/2/4
f 216/2/4 214/2/4 215/2/4
f 217/2/4 215/2/4 209/2/4
f 218/2/4 215/2/4 217/2/4
f 219/1/4 203/1/4 199/1/4
f 222/1/4 202/1/4 206/1/4
f 223/1/4 220/1/4 219/1/4
f 223/1/4 219/1/4 199/1/4
f 224/1/4 220/1/4 223/1/4
f 225/1/4 222/1/4 221/1/4
f 225/1/4 202/1/4 222/1/4
f 226/1/4 202/1/4 225/1/4
f 227/1/4 220/1/4 224/1/4
f 228/1/4 220/1/4 227/1/4
f 231/1/4 225/1/4 221/1/4
f 232/1/4 225/1/4 231/1/4
f 233/1/4 229/1/4 228/1/4
f 234/1/4 229/1/4 233/1/4
f 235/1/4 229/1/4 234/1/4
f 236/1/4 231/1/4 230/1/4
f 237/1/4 231/1/4 236/1/4
f 238/1/4 231/1/4 237/1/4
f 239/1/4 235/1/4 234/1/4
f 239/1/4 237/1/4 236/1/4
f 239/1/4 236/1/4 235/1/4
f 240/1/4 237/1/4 239/1/4
f 241/1/5 242/1/5 243/1/5
f 243/1/5 242/1/5 244/1/5
f 245/1/5 246/1/5 249/1/5
f 249/1/5 246/1/5 250/1/5
f 247/1/5 248/1/5 251/1/5
f 251/1/5 248/1/5 252/1/5
f 253/1/5 254/1/5 257/1/5
f 253/1/5 257/1/5 258/1/5
f 253/1/5 258/1/5 259/1/5
f 259/1/5 258/1/5 260/1/5
f 255/1/5 256/1/5 261/1/5
f 261/1/5 256/1/5 262/1/5
f 263/2/5 264/2/5 265/2/5
f 265/2/5 264/2/5 266/2/5
f 267/1/5 268/1/5 271/1/5
f 271/1/5 268/1/5 272/1/5
f 269/1/5 270/1/5 273/1/5
f 273/1/5 270/1/5 274/1/5
f 275/1/5 276/1/5 281/1/5
f 281/1/5 276/1/5 282/1/5
f 277/2/5 278/2/5 283/2/5
f 283/2/5 278/2/5 284/2/5
f 279/1/5 280/1/5 285/1/5
f 285/1/5 280/1/5 286/1/5
f 287/1/5 288/1/5 291/1/5
f 291/1/5 288/1/5 292/1/5
f 289/1/5 290/1/5 293/1/5
f 293/1/5 290/1/5 294/1/5
f 295/1/5 296/1/5 297/1/5
f 297/1/5 296/1/5 298/1/5
f 301/1/6 300/1/6 299/1/6
f 302/1/6 300/1/6 301/1/6
f 307/1/6 304/1/6 303/1/6
f 308/1/6 304/1/6 307/1/6
f 309/1/6 306/1/6 305/1/6
f 310/1/6 306/1/6 309/1/6
f 315/2/6 312/2/6 311/2/6
f 316/2/6 312/2/6 315/2/6
f 317/2/6 314/2/6 313/2/6
f 318/2/6 314/2/6 317/2/6
f 323/1/6 320/1/6 319/1/6
f 324/1/6 320/1/6 323/1/6
f 325/1/6 322/1/6 321/1/6
f 326/1/6 322/1/6 325/1/6
f 333/1/6 328/1/6 327/1/6
f 334/1/6 328/1/6 333/1/6
f 335/2/6 332/2/6 331/2/6
f 336/2/6 332/2/6 335/2/6
f 337/1/6 330/1/6 329/1/6
f 338/1/6 330/1/6 337/1/6
f 341/2/6 340/2/6 339/2/6
f 342/2/6 340/2/6 341/2/6
f 347/1/6 344/1/6 343/1/6
f 348/1/6 344/1/6 347/1/6
f 349/1/6 346/1/6 345/1/6
f 350/1/6 346/1/6 349/1/6
f 355/1/6 352/1/6 351/1/6
f 356/1/6 352/1/6 355/1/6
f 357/1/6 354/1/6 353/1/6
f 358/1/6 354/1/6 357/1/6
f 361/1/6 360/1/6 359/1/6
f 362/1/6 360/1/6 361/1/6
